<?xml version="1.0" encoding="utf-8"?>
<!-- Generator: Adobe Illustrator 21.0.1, SVG Export Plug-In . SVG Version: 6.00 Build 0)  -->
<svg version="1.1" id="Layer_1" xmlns="http://www.w3.org/2000/svg" xmlns:xlink="http://www.w3.org/1999/xlink"
	 viewBox="-410.6 225.3 62.6 85.7" width="37" height="51" xml:space="preserve" fill="#fff">
<g>
	<g>
		<rect x="-402.2" y="227.8" transform="matrix(0.7072 -0.707 0.707 0.7072 -281.1171 -215.0562)" width="3.9" height="8.2"/>
		<rect x="-406" y="231.6" transform="matrix(0.707 -0.7072 0.7072 0.707 -285.1066 -216.6899)" width="3.9" height="8.2"/>
		<path d="M-399.9,225.8l-0.7,0.7l5.8,5.8l0.7-0.7c0.6-0.6,0.6-1.6,0-2.2l-3.6-3.6C-398.3,225.2-399.3,225.2-399.9,225.8z"/>
		<path d="M-409.4,235.3l-0.7,0.7c-0.6,0.6-0.6,1.6,0,2.2l3.6,3.6c0.6,0.6,1.6,0.6,2.2,0l0.7-0.7L-409.4,235.3z"/>
	</g>
	<rect x="-402" y="237.3" transform="matrix(0.7071 -0.7071 0.7071 0.7071 -285.101 -211.0688)" width="9.4" height="2.5"/>
</g>
<g>
	<path d="M-372.6,287.3c0.3-0.2,0.5-0.4,0.8-0.6c0.3-0.2,0.6-0.5,0.9-0.8c0.3-0.3,0.6-0.7,0.8-1.1c0.2-0.4,0.5-0.8,0.7-1.3
		c0.2-0.5,0.4-0.9,0.5-1.5c0.1-0.5,0.2-1.1,0.2-1.5c0-0.2,0-0.5,0-0.7c0-0.3,0-0.6-0.1-0.8c-0.1-1-0.5-1.8-0.7-2.5
		c-0.3-0.7-0.6-1.2-0.8-1.6c-0.2-0.4-0.4-0.6-0.4-0.6c0,0,0.1,1,0.3,2.4c0,0.4,0.1,0.7,0.1,1.1c0.1,0.4,0.1,0.8,0.1,1.2
		c0,0.2,0,0.4,0,0.6c0,0.2-0.1,0.5-0.1,0.7c0,0.5-0.1,0.9-0.2,1.3c-0.1,0.4-0.3,0.8-0.4,1.3c-0.2,0.4-0.3,0.8-0.5,1.2
		c-0.2,0.4-0.4,0.7-0.6,1.1c-0.2,0.3-0.4,0.6-0.6,0.9c-0.2,0.3-0.4,0.5-0.6,0.8c-0.2,0.2-0.4,0.4-0.5,0.6c-0.3,0.3-0.4,0.5-0.4,0.5
		s0.2-0.1,0.6-0.3C-373.1,287.6-372.8,287.5-372.6,287.3z"/>
	<path d="M-351.6,226h-28.7l-29.8,30.1v51.3c0,2,1.6,3.6,3.6,3.6h54.9c2,0,3.6-1.6,3.6-3.6v-77.9C-348,227.6-349.6,226-351.6,226z
		 M-365.2,280c0,7.4-6,13.4-13.4,13.4c-7.4,0-13.4-6-13.4-13.4c0,0-0.2-10,13.4-24.8C-364.9,270-365.2,280-365.2,280z M-355,234
		c0,1.3-0.8,2-1.7,2h-16.6c-0.9,0-1.7-0.8-1.7-1.7v-1.6c0-0.9,0.8-1.7,1.7-1.7h16.6c0.9,0,1.7,0.8,1.7,1.7L-355,234L-355,234z"/>
</g>
</svg>
