<?xml version="1.0" encoding="utf-8"?>
<svg version="1.1" id="Layer_1" xmlns="http://www.w3.org/2000/svg" xmlns:xlink="http://www.w3.org/1999/xlink" x="0px" y="0px" width="77" height="80"
	 viewBox="-474.6 276.1 7.7 7" style="enable-background:new -474.6 276.1 7.7 7;" xml:space="preserve">
<style type="text/css">
	.st0{fill:#fff;}
</style>
	<g transform="translate(0,-288.53332)">
		<path class="st0" d="M-474.1,568.1l0.5,0.5l-0.1,0.2c-0.1,0.3-0.2,0.6-0.2,0.9v1.9h-0.7v-2.2c0-0.3,0.1-0.6,0.2-0.9L-474.1,568.1z"
			/>
		<path class="st0" d="M-470,566.5l-1-1c-0.3-0.3-0.8-0.3-1.1,0l-1.8,1.8c-0.2,0.2-0.2,0.5,0,0.7l0.7,0.7l1.1-1.1
			c0.2-0.2,0.4-0.2,0.6,0l0.7,0.7l0.9-0.9C-469.8,567-469.8,566.7-470,566.5L-470,566.5z"/>
		<path class="st0" d="M-471.4,568.1l0.2,0.2l-0.1,0.1c-0.4,0.4-1,0.4-1.4,0l-0.1-0.1l0.2-0.2l0.1,0.1c0.3,0.3,0.7,0.3,1,0
			L-471.4,568.1z"/>
		<path class="st0" d="M-471.8,567.3C-471.8,567.3-471.8,567.4-471.8,567.3l0,0.8c0,0.1-0.1,0.1-0.1,0.1s-0.1-0.1-0.1-0.1v0l0-0.7
			C-472,567.3-472,567.3-471.8,567.3C-471.9,567.3-471.8,567.3-471.8,567.3L-471.8,567.3z"/>
		<path class="st0" d="M-468.9,564.7c0.1,0,0.2,0,0.3,0l1,0.2l-0.2,0.7l-0.7-0.1c-0.4-0.1-0.8,0-1.2,0.2l-0.6,0.3l-0.6-0.6l1-0.5
			C-469.5,564.7-469.2,564.7-468.9,564.7L-468.9,564.7z"/>
		<path class="st0" d="M-468.2,568.8c0,0.4,0.3,0.6,0.6,0.6c0.4,0,0.6-0.3,0.6-0.6c0-0.4-0.6-1.1-0.6-1.1S-468.2,568.4-468.2,568.8z"
			/>
	</g>
</svg>
