<?xml version="1.0" encoding="utf-8"?>
<svg version="1.1" id="Layer_1" xmlns="http://www.w3.org/2000/svg" xmlns:xlink="http://www.w3.org/1999/xlink" x="0px" y="0px"
	 viewBox="-428.3 219.2 79.8 51.6" width="61" height="44" style="enable-background:new -428.3 219.2 79.8 51.6;" xml:space="preserve" fill="#fff">
<g>
	<path d="M-380.1,226.1c5.2,4.1,8.6,8.5,8.6,10.9v1.3h-15.3c1.9-2.2,3.1-4.6,3.2-4.7c0.2-0.4,0.1-1-0.4-1.2c-0.4-0.2-1-0.1-1.2,0.4
		c0,0-1.8,3.3-4.1,5.5h-1.4c-0.5,0-0.9,0.4-0.9,0.9v0.8c-0.6,0.3-1.2,0.5-1.7,0.4c-0.6-0.5-1.3-1.1-1.9-1.7c1.7-1.3,5-4.6,4.2-9.4
		c-0.1-0.5-0.5-0.8-1-0.7c-0.5,0.1-0.8,0.5-0.7,1c0.6,4.1-2.4,6.9-3.7,7.9c-2.4-2.5-4.3-4.9-4.3-4.9c-0.3-0.4-0.9-0.5-1.2-0.2
		c-0.4,0.3-0.5,0.9-0.2,1.3c0.2,0.3,4,5.2,8.1,8.3c0,0,0,0,0,0c1.3,1,2.6,1.8,3.8,2.2c0.8,0.3,1.9,0.6,3.1,0.9
		c6.1,1.7,17.6,4.9,16.5,10.1c-0.1,0.7-0.4,1.1-1,1.4c-2.9,1.6-10.7-1.3-16-3.3c-2.9-1.1-5.3-2-6.6-2.1c-2-0.2-5.2-0.2-8.6-0.1
		c-3.9,0.1-7.9,0.1-9.6-0.2c-1.2-0.3-2.6-0.4-4.1-0.6c-2.3-0.3-4.9-0.6-6.7-1.4v-21.5c3.7-1.3,23.6-8.1,29.5-8.1
		C-390.6,219.2-385.2,222-380.1,226.1z"/>
	<path d="M-400.3,252.8c1.8,0,3.5,0,4.9,0c-1.5,1.5-2.7,3.7-3.3,4.8c-0.9,0-1.9-0.1-2.2-0.4c-0.5-0.6-1.2-2.1-1.5-2.9
		C-401.9,253.8-401.1,253.1-400.3,252.8z"/>
	<rect x="-367.2" y="245.9" width="14.1" height="2.9"/>
	<rect x="-428.3" y="227.3" width="3.5" height="21.4"/>
	<path d="M-403.9,253.5c-2.2,0.1-10.3,0.5-15.8-2c1,0.2,2.1,0.3,3.1,0.4c1.4,0.2,2.8,0.4,3.9,0.6c1.8,0.4,5.4,0.4,9.3,0.3
		C-403.6,253.1-403.8,253.3-403.9,253.5z"/>
	<path d="M-389.6,254.4v16.5h41.1V240h-41.1v2.4c0,0,0,0,0,0c0.8,0.3,1.8,0.6,3.1,0.9c7.2,2,19.2,5.4,17.8,12.2
		c-0.2,1.2-0.9,2-1.9,2.6c-3.6,2-11.3-0.9-17.4-3.2C-388.6,254.7-389.1,254.5-389.6,254.4z M-352.2,250.6h-15.9
		c-0.5,0-0.9-0.4-0.9-0.9V245c0-0.5,0.4-0.9,0.9-0.9h15.9c0.5,0,0.9,0.4,0.9,0.9v4.6C-351.3,250.2-351.7,250.6-352.2,250.6
		L-352.2,250.6z M-380.7,264.3c0.5,0,0.9,0.4,0.9,0.9c0,0.5-0.4,0.9-0.9,0.9h-6.4c-0.5,0-0.9-0.4-0.9-0.9c0-0.5,0.4-0.9,0.9-0.9
		H-380.7z M-371.2,264.3c0.5,0,0.9,0.4,0.9,0.9c0,0.5-0.4,0.9-0.9,0.9h-0.1h-6.2h-0.1c-0.5,0-0.9-0.4-0.9-0.9c0-0.5,0.4-0.9,0.9-0.9
		h0.1h6.2H-371.2z M-361.7,264.3c0.5,0,0.9,0.4,0.9,0.9c0,0.5-0.4,0.9-0.9,0.9h-0.2h-6.2h-0.2c-0.5,0-0.9-0.4-0.9-0.9
		c0-0.5,0.4-0.9,0.9-0.9h0.2h6.2H-361.7z M-352.2,264.3c0.5,0,0.9,0.4,0.9,0.9c0,0.5-0.4,0.9-0.9,0.9h-6.4c-0.5,0-0.9-0.4-0.9-0.9
		c0-0.5,0.4-0.9,0.9-0.9H-352.2z"/>
</g>
</svg>
