<svg xmlns="http://www.w3.org/2000/svg" viewBox="0 0 196.21191 46.999999">
  <defs>
    <linearGradient x2="1" gradientUnits="userSpaceOnUse" gradientTransform="scale(76.54) rotate(90 .225 .09)" id="a">
      <stop offset="0" stop-color="#007cbf"/>
      <stop offset=".6185057" stop-color="#002f94"/>
      <stop offset="1" stop-color="#002f94"/>
    </linearGradient>
    <linearGradient x2="1" gradientUnits="userSpaceOnUse" gradientTransform="rotate(-90 94.934 -1.58) scale(86.17486)" id="b">
      <stop offset="0" stop-color="#007cbf"/>
      <stop offset=".6185057" stop-color="#002f94"/>
      <stop offset="1" stop-color="#002f94"/>
    </linearGradient>
    <linearGradient x2="1" gradientUnits="userSpaceOnUse" gradientTransform="scale(154.77573) rotate(-135 .67 .207)" id="c">
      <stop offset="0" stop-color="#f58b1f"/>
      <stop offset=".494624" stop-color="#ed6723"/>
      <stop offset="1" stop-color="#ee3e30"/>
    </linearGradient>
  </defs>
  <path d="M0 67.794V0h48.257v67.794H0z" fill="url(#a)" transform="matrix(.69627 0 0 -.69328 0 47)"/>
  <path d="M72.386 67.794V0h48.256v67.794H72.386z" fill="url(#b)" transform="matrix(.69627 0 0 -.69328 0 47)"/>
  <path d="M72.386 67.794L0 0h48.577l23.969 23.969 48.096 43.825H72.386z" fill="url(#c)" transform="matrix(.69627 0 0 -.69328 0 47)"/>
  <g>
    <path d="M183.988253 18.07226v28.224h-5.88v-28.224h-12.488v-5.376h30.856v5.376h-12.488zm-31.808 19.096h-10.192v9.128h-6.104v-33.6h16.296c3.976 0 7.448 1.624 9.856 4.48 1.736 2.184 2.8 4.704 2.8 7.84 0 3.416-1.456 6.44-3.64 8.624-2.408 2.24-5.488 3.528-9.016 3.528zm4.928-16.744c-1.176-1.4-2.968-2.24-5.152-2.24h-9.968v13.552h10.416c1.848 0 3.64-.84 4.704-2.128.896-1.288 1.68-3.08 1.68-4.592 0-1.848-.56-3.416-1.68-4.592zm-52.08 1.736v24.136h-5.88v-33.6h5.544l19.88 24.192v-24.192h5.768v33.6h-5.544l-19.768-24.136z" fill="#fff" fill-rule="evenodd"/>
  </g>
</svg>
