<?xml version="1.0" encoding="utf-8"?>
<!-- Generator: Adobe Illustrator 21.0.1, SVG Export Plug-In . SVG Version: 6.00 Build 0)  -->
<svg version="1.1" id="Layer_1" xmlns="http://www.w3.org/2000/svg" xmlns:xlink="http://www.w3.org/1999/xlink"
	 viewBox="-350 -120 435.3 900.9" width="50" height="75">
<g fill="#fff" transform="rotate(35)">
	<path d="M110.8-41.1c0,0-110,116.8-128.9,192.4h-0.2c0,0.8-0.2,1.7-0.2,2.5c-0.9,7-1.5,14.1-2.3,21.1
		c-9.9,112.6,7.4,226.8,46.4,342.8H196c38.7-115.2,55.8-228.9,46.3-340.6c-0.6-8.4-1.4-16.8-2.5-25.2v-0.6
		C221,75.6,110.8-41.1,110.8-41.1z M110.7,141c33.4,0,60.4,27.2,60.4,60.6s-27,60.4-60.4,60.4c-33.4,0-60.5-27-60.5-60.4
		S77.3,141,110.7,141z M250.9,346.6c-5.6,42.9-15.2,86.5-28.1,130.8c5.1,6.7,8.8,14.2,11.6,22.1l27.4,79.6
		c2.5,7.3,12.9,6.5,14.3-1.1l13.5-71.6C300.7,449.7,286.1,391.6,250.9,346.6L250.9,346.6z M-29.8,346.9
		c-35.1,45-49.5,102.8-38.8,159.5l13.5,71.6c1.4,7.6,12,8.4,14.5,1.1l27.5-79.6c2.5-7.9,6.5-15.3,11.3-22.1
		C-14.4,433.3-23.9,389.6-29.8,346.9z M59.1,540.6c-10.6,7.6-25.1,23.7-19.5,53.8c8.2,45.9,68.1,105.6,68.1,144.4
		c0-38.8,59.9-98.4,68.4-144.4c5.4-30.2-9.1-46.2-19.8-53.8h-19.8c1.1,3.4,1.5,7.5,0.6,12.5c-3.5,19.7-29.5,45.4-29.5,62.3
		c0-16.8-26-42.6-29.6-62.3c-0.9-5-0.5-9.1,0.6-12.5H59.1L59.1,540.6z"/>
</g>
</svg>
