<svg width="0px" height="0px" xmlns="http://www.w3.org/2000/svg" xmlns:xlink="http://www.w3.org/1999/xlink" x="0px" y="0px">
	<symbol id="logo-svg" viewBox="0 0 281.2 121.4">
		<path class="logo-svg" d="M83.7,11.8c-7.1-3.4-14.9-5.1-23-5.1c-8.2,0-16,1.9-23,5.2l23,23L83.7,11.8z"/>
		<path class="logo-svg" d="M12.5,36.4C8.8,43.7,6.7,52,6.7,60.7c0,8.2,1.9,16,5.2,23l24-24L12.5,36.4z"/>
		<path class="logo-svg" d="M32.7,106.9l28-28l28,28c3.3-2,6.4-4.4,9.3-7.1L60.7,62.6L23.5,99.8C26.3,102.4,29.3,104.8,32.7,106.9z"/>
		<path class="logo-svg" d="M60.7,56.8L60.7,56.8l36.3-36.1c-2.9-2.7-6.1-5-9.5-6.9L60.7,40.5L34,13.8c-3.4,2-6.6,4.3-9.5,6.9L60.7,56.8
			L60.7,56.8z"/>
		<path class="logo-svg" d="M27.1,29l-5.5-5.5c-2.7,2.8-5.1,5.9-7.1,9.3l27,27L13.8,87.4c1.9,3.4,4.2,6.6,6.8,9.5l37.2-37.2L27.1,29z"/>
		<path class="logo-svg" d="M60.7,0C27.2,0,0,27.2,0,60.7c0,33.5,27.2,60.7,60.7,60.7s60.7-27.2,60.7-60.7C121.4,27.2,94.2,0,60.7,0z
			 M102.3,101.1c-11,11.3-25.8,17.6-41.6,17.6c-32,0-58-26-58-58s26-58,58-58c15.2,0,29.6,5.9,40.5,16.5c0.1,0.1,0.2,0.2,0.3,0.3
			l1.4,1.5l-1.4,1.4l0,0l-0.4,0.4L63.6,59.7l38.6,38.6l0,0l1.5,1.4L102.3,101.1z"/>
		<path class="logo-svg" d="M36.3,108.9c7.3,3.7,15.6,5.8,24.4,5.8c8.6,0,16.9-2,24.4-5.8L60.7,84.5L36.3,108.9z"/>
		<g class="logo-name">
			<path class="logo-svg" d="M176,35.2v48.5h-7.8V61.3h-27.5v22.4H133V35.2h7.8v19.2h27.5V35.2H176z"/>
			<path class="logo-svg" d="M193.1,83.7h-7.8V35.2h43.2v48.5h-7.8V42.1h-27.6V83.7z"/>
			<path class="logo-svg" d="M235.9,35.2h45.3V42h-18.8v41.7h-7.8V42h-18.7V35.2z"/>
		</g>
		<g class="logo-sub">
			<path class="logo-svg" d="M138.1,90v6h-1v-2.8h-3.4V96h-1v-6h1v2.4h3.4V90H138.1z"/>
			<path class="logo-svg" d="M141.7,90h4.7v0.9h-3.7v1.6h3.3v0.8h-3.3v1.9h3.8V96h-4.8V90z"/>
			<path class="logo-svg" d="M153.6,90.6h0.8c0.8,0,1.4,0.3,1.9,0.8c0.3,0.4,0.6,0.9,0.6,1.5c0,0.7-0.3,1.2-0.7,1.7c-0.4,0.4-1,0.7-1.8,0.7
				h-0.8V96h-0.9v-0.7h-0.8c-0.7,0-1.3-0.3-1.8-0.7c-0.4-0.4-0.7-1-0.7-1.6s0.2-1.2,0.6-1.6c0.4-0.5,1-0.7,1.8-0.7h0.8v-0.6h0.9V90.6z
				 M151.9,94.5h0.7v-3.1h-0.7c-0.5,0-0.9,0.2-1.2,0.4s-0.4,0.6-0.4,1.1c0,0.4,0.1,0.8,0.4,1.1C151,94.3,151.4,94.5,151.9,94.5z
				 M153.6,91.4v3.1h0.7c0.5,0,0.9-0.1,1.2-0.4c0.3-0.3,0.4-0.6,0.4-1.1c0-0.4-0.2-0.7-0.4-1c-0.3-0.3-0.7-0.5-1.2-0.5H153.6z"/>
			<path class="logo-svg" d="M159.3,90h5.6v0.8h-2.3V96h-1v-5.2h-2.3V90z"/>
			<path class="logo-svg" d="M168.2,90h4.7v0.9h-3.7v1.6h3.3v0.8h-3.3v1.9h3.8V96h-4.8V90z"/>
			<path class="logo-svg" d="M177.5,96h-1v-6h5.4v6h-1v-5.1h-3.4V96z"/>
			<path class="logo-svg" d="M190.1,93.7c-0.4,0.4-1,0.7-1.7,0.7h-1.9V96h-1v-6h2.9c0.7,0,1.3,0.3,1.7,0.7c0.4,0.4,0.6,0.9,0.6,1.5
				C190.6,92.8,190.4,93.3,190.1,93.7z M188.4,93.5c0.4,0,0.7-0.2,0.9-0.4c0.2-0.2,0.3-0.6,0.3-0.9c0-0.3-0.1-0.7-0.3-0.9
				c-0.2-0.3-0.6-0.4-1-0.4h-1.9v2.7H188.4z"/>
			<path class="logo-svg" d="M199.3,90.9c0.5,0.6,0.9,1.3,0.9,2.2c0,0.9-0.3,1.7-0.9,2.2c-0.6,0.5-1.3,0.9-2.3,0.9c-0.9,0-1.7-0.3-2.3-0.9
				c-0.6-0.6-0.9-1.3-0.9-2.2c0-0.9,0.3-1.7,1-2.3c0.6-0.5,1.3-0.9,2.2-0.9C197.9,89.9,198.7,90.3,199.3,90.9z M195.4,94.7
				c0.4,0.4,1,0.6,1.6,0.6c0.6,0,1.2-0.2,1.6-0.6c0.4-0.4,0.6-1,0.6-1.7c0-0.7-0.2-1.3-0.7-1.7c-0.4-0.4-0.9-0.6-1.6-0.6
				c-0.7,0-1.2,0.2-1.6,0.6c-0.4,0.4-0.6,0.9-0.6,1.6C194.7,93.7,195,94.3,195.4,94.7z"/>
			<path class="logo-svg" d="M208.6,90v5.2h0.7v2h-0.8l-0.1-1.2h-4.7l-0.1,1.2h-0.8v-2h0.2c0.3,0,0.5-0.2,0.7-0.4c0.2-0.3,0.3-0.6,0.3-0.9
				l0.6-3.8H208.6z M205.3,90.9l-0.5,3.2c-0.1,0.5-0.2,0.9-0.5,1.1h3.3v-4.3H205.3z"/>
			<path class="logo-svg" d="M218.3,90l-2.6,5c-0.2,0.3-0.4,0.6-0.6,0.8c-0.2,0.2-0.5,0.3-0.9,0.3c-0.2,0-0.4,0-0.6-0.1l0.1-0.7h0.3
				c0.2,0,0.3,0,0.5-0.1c0.1-0.1,0.2-0.2,0.3-0.3l0.1-0.2l-2.7-4.6h1.1l2.1,3.7h0.1l1.9-3.7H218.3z"/>
			<path class="logo-svg" d="M222.5,90v2.4h1c0.2,0,0.3,0,0.5-0.1c0.1-0.1,0.2-0.2,0.3-0.3l0.7-1.2c0.1-0.3,0.3-0.5,0.5-0.6
				c0.2-0.1,0.5-0.2,0.9-0.2c0.2,0,0.4,0,0.6,0.1l-0.1,0.8h-0.2c-0.2,0-0.4,0-0.6,0.1c-0.1,0.1-0.2,0.2-0.3,0.3l-0.7,1.2
				c-0.1,0.1-0.2,0.3-0.3,0.4L227,96h-1.1l-1.8-2.8c-0.1,0-0.3,0-0.4,0h-1V96h-1v-6H222.5z"/>
			<path class="logo-svg" d="M229.8,90h5.6v0.8h-2.3V96h-1v-5.2h-2.3V90z"/>
			<path class="logo-svg" d="M238.4,90h5.6v0.8h-2.3V96h-1v-5.2h-2.3V90z"/>
			<path class="logo-svg" d="M251.9,93.7c-0.4,0.4-1,0.7-1.7,0.7h-1.9V96h-1v-6h2.9c0.7,0,1.3,0.3,1.7,0.7c0.4,0.4,0.6,0.9,0.6,1.5
				C252.5,92.8,252.3,93.3,251.9,93.7z M250.3,93.5c0.4,0,0.7-0.2,0.9-0.4c0.2-0.2,0.3-0.6,0.3-0.9c0-0.3-0.1-0.7-0.3-0.9
				c-0.2-0.3-0.6-0.4-1-0.4h-1.9v2.7H250.3z"/>
			<path class="logo-svg" d="M255.9,90h4.7v0.9h-3.7v1.6h3.3v0.8h-3.3v1.9h3.8V96h-4.8V90z"/>
			<path class="logo-svg" d="M265.1,94.6l3.6-4.6h0.9v6h-0.9v-4.6l-3.6,4.6h-0.9v-6h0.9V94.6z M265.8,89.1c-0.2-0.2-0.4-0.4-0.4-0.8
				l0.7-0.3c0.1,0.2,0.2,0.4,0.3,0.5c0.1,0.1,0.3,0.2,0.5,0.2c0.2,0,0.4-0.1,0.5-0.2c0.1-0.1,0.2-0.3,0.3-0.5l0.7,0.3
				c-0.1,0.3-0.2,0.6-0.4,0.8c-0.3,0.3-0.6,0.4-1,0.4C266.4,89.4,266.1,89.3,265.8,89.1z"/>
			<path class="logo-svg" d="M278.8,90v5.2h0.6v2h-0.8l-0.1-1.2h-4.7l-0.1,1.2h-0.8v-2h0.2c0.3,0,0.5-0.2,0.7-0.4c0.2-0.3,0.3-0.6,0.3-0.9
				l0.6-3.8H278.8z M275.5,90.9l-0.5,3.2c-0.1,0.5-0.2,0.9-0.5,1.1h3.3v-4.3H275.5z"/>
		</g>
	</symbol>

	<symbol id="arrow-right" viewbox="0 0 66 66">
		<path class="path-arrow" fill-rule="evenodd" fill="#fff"
		d="M24.865,11.999 L23.433,10.599 L27.114,7.000 L-0.000,7.000 L-0.000,5.000 L12.594,5.000 L12.594,4.999 L27.114,4.999 L23.433,1.399 L24.865,-0.001 L31.000,5.998 L24.865,11.999 Z" transform="translate(18, 27)"/>
	</symbol>

	<symbol id="phone-i" viewBox="-246 343 82 82" xml:space="preserve">
		<style type="text/css">
			.st0{fill:#FFFFFF;stroke:#FFFFFF;stroke-width:2;stroke-linecap:round;stroke-linejoin:round;stroke-miterlimit:10;}
		</style>
		<path class="st0" d="M-198.8 404.5l11.9-11.9 21.9 10.1V424c-44.2 0-80-35.8-80-80h21.3l10.1 21.9-11.9 11.9c6.2 11.2 15.5 20.5 26.7 26.7z" id="path25" stroke="#000" stroke-width="2" stroke-linecap="round" stroke-linejoin="round" stroke-miterlimit="10"/>
	</symbol>

	<symbol id="calculator-i" viewBox="-419.7 233.2 74.5 74.6" fill="#fff" xml:space="preserve">
		<path class="st1" d="M-353.1,233.2h-58.6c-4.4,0-8,3.6-8,8v16.6h15.6h23.7h15.6h19.6v-16.6C-345.1,236.8-348.7,233.2-353.1,233.2z"/>
		<rect x="-419.7" y="261.8" width="15.6" height="8.5"/>
		<rect x="-380.4" y="274.3" width="15.6" height="8.5"/>
		<path d="M-404,299.3h-15.7v0.5c0,4.4,3.6,8,8,8h7.6v-8.5H-404z"/>
		<rect x="-400" y="274.3" width="15.6" height="8.5"/>
		<rect x="-380.4" y="261.8" width="15.6" height="8.5"/>
		<rect x="-380.4" y="299.3" width="15.6" height="8.5"/>
		<rect x="-419.7" y="274.3" width="15.6" height="8.5"/>
		<rect x="-400" y="261.8" width="15.6" height="8.5"/>
		<rect x="-400" y="299.3" width="15.6" height="8.5"/>
		<rect x="-400" y="286.8" width="15.6" height="8.5"/>
		<rect x="-419.7" y="286.8" width="15.6" height="8.5"/>
		<rect x="-380.4" y="286.8" width="15.6" height="8.5"/>
		<path d="M-360.8,274.3v33.5h7.6c4.4,0,8-3.6,8-8v-4.5v-8.5v-12.5H-360.8z"/>
		<rect x="-360.8" y="261.8" width="15.6" height="8.5"/>
	</symbol>	

	<symbol id="chevron-right" viewBox="-458.3 273 5.4 10.1">
  		<path d="M-457.6587 273.1c-.1-.1-.3-.1-.5 0-.1.1-.1.1-.1.2s0 .2.1.2l4.5 4.5-4.5 4.5c-.1.1-.1.1-.1.2s0 .2.1.2c.1.1.1.1.2.1s.2 0 .2-.1l4.7-4.7c.1-.1.1-.1.1-.2s0-.2-.1-.2z"/>
	</symbol>
</svg>