<?xml version="1.0" encoding="utf-8"?>
<!-- Generator: Adobe Illustrator 21.0.1, SVG Export Plug-In . SVG Version: 6.00 Build 0)  -->
<svg version="1.1" id="Layer_1" xmlns="http://www.w3.org/2000/svg" xmlns:xlink="http://www.w3.org/1999/xlink" x="0px" y="0px"
	 viewBox="-423.8 247.3 89.7 41.4" widht="65" height="36" fill="#fff">
<g>
	<path d="M-351.4,279.5c-2.5,0-4.6,2.1-4.6,4.6c0,2.5,2.1,4.6,4.6,4.6s4.6-2.1,4.6-4.6C-346.8,281.6-348.9,279.5-351.4,279.5z
		 M-351.4,285.9c-1,0-1.8-0.8-1.8-1.8c0-1,0.8-1.8,1.8-1.8c1,0,1.8,0.8,1.8,1.8C-349.6,285.1-350.4,285.9-351.4,285.9z"/>
	<path d="M-412.7,273.4h40.8c6.1,0,11.1-5,11.1-11.1s-5-11.1-11.1-11.1h-22.9v-1.9h1.2v-1.9h-1.2h-9.9h-1.2v1.9h1.2v1.9h-8
		c-6.1,0-11.1,5-11.1,11.1C-423.8,268.4-418.8,273.4-412.7,273.4z M-392.3,257.6l1.4,2.7c0.5,1,1.5,2.6,1.5,3.7c0,1.7-1.3,3-3,3
		s-3-1.3-3-3c0-1.1,1-2.7,1.5-3.7L-392.3,257.6z"/>
	<path d="M-399.2,279.5c-2.5,0-4.6,2.1-4.6,4.6c0,2.5,2.1,4.6,4.6,4.6c2.5,0,4.6-2.1,4.6-4.6C-394.6,281.6-396.7,279.5-399.2,279.5z
		 M-399.2,285.9c-1,0-1.8-0.8-1.8-1.8c0-1,0.8-1.8,1.8-1.8c1,0,1.8,0.8,1.8,1.8C-397.4,285.1-398.2,285.9-399.2,285.9z"/>
	<path d="M-411.7,279.5c-2.5,0-4.6,2.1-4.6,4.6c0,2.5,2.1,4.6,4.6,4.6c2.5,0,4.6-2.1,4.6-4.6C-407.1,281.6-409.2,279.5-411.7,279.5z
		 M-411.7,285.9c-1,0-1.8-0.8-1.8-1.8c0-1,0.8-1.8,1.8-1.8c1,0,1.8,0.8,1.8,1.8C-409.9,285.1-410.7,285.9-411.7,285.9z"/>
	<path d="M-336.7,258.8c-1-4.1-4.5-6.8-8.7-6.8h-13.7v24.2h-64.3v2.6c0,3,1.9,5.4,4.3,5.4h1c0-0.1,0-0.3,0-0.4
		c0-3.6,2.9-6.5,6.5-6.5c3,0,5.5,2,6.2,4.8c0.8-2.7,3.3-4.8,6.2-4.8c3.6,0,6.5,2.9,6.5,6.5c0,0.1,0,0.3,0,0.4h34.3c0,0,0,0,0,0
		c0-3.9,3.2-7.1,7.1-7.1c3.9,0,7.1,3.2,7.1,7.1c0,0,0,0,0,0h6.3l3.8-8.2h0v-6.8L-336.7,258.8z M-340.1,266.1c0,0.5-0.2,0.9-0.6,1.3
		c-0.4,0.3-0.9,0.4-1.4,0.3l-7.6-1.6c-0.8-0.2-1.3-0.8-1.3-1.6v-3.9c0-0.9,0.7-1.6,1.6-1.6h7.6c0.9,0,1.6,0.7,1.6,1.6L-340.1,266.1
		L-340.1,266.1z"/>
</g>
</svg>
